<?xml version="1.0" encoding="UTF-8" standalone="no"?>
<!-- Created with Inkscape (http://www.inkscape.org/) -->

<svg
   xmlns:dc="http://purl.org/dc/elements/1.1/"
   xmlns:cc="http://creativecommons.org/ns#"
   xmlns:rdf="http://www.w3.org/1999/02/22-rdf-syntax-ns#"
   xmlns:svg="http://www.w3.org/2000/svg"
   xmlns="http://www.w3.org/2000/svg"
   xmlns:sodipodi="http://sodipodi.sourceforge.net/DTD/sodipodi-0.dtd"
   xmlns:inkscape="http://www.inkscape.org/namespaces/inkscape"
   width="48"
   height="48"
   id="svg2"
   version="1.1"
   inkscape:version="0.48.1 r9760"
   sodipodi:docname="02.svg">
  <defs
     id="defs4">
    <clipPath
       clipPathUnits="userSpaceOnUse"
       id="clipPath3853">
      <rect
         style="fill:#000000;fill-opacity:1;stroke:none"
         id="rect3855"
         width="211.63692"
         height="222.65967"
         x="-246.90128"
         y="1239.0198"
         transform="matrix(-0.99491859,-0.10068268,-0.10068268,0.99491859,0,0)" />
    </clipPath>
  </defs>
  <sodipodi:namedview
     id="base"
     pagecolor="#ffffff"
     bordercolor="#666666"
     borderopacity="1.0"
     inkscape:pageopacity="0.0"
     inkscape:pageshadow="2"
     inkscape:zoom="9.1091581"
     inkscape:cx="25.619702"
     inkscape:cy="23.484727"
     inkscape:document-units="px"
     inkscape:current-layer="g4038"
     showgrid="false"
     inkscape:window-width="1024"
     inkscape:window-height="714"
     inkscape:window-x="0"
     inkscape:window-y="24"
     inkscape:window-maximized="1"
     showguides="true"
     inkscape:guide-bbox="true">
    <sodipodi:guide
       orientation="0,1"
       position="122.0313,-111.29254"
       id="guide3924" />
  </sodipodi:namedview>
  <metadata
     id="metadata7">
    <rdf:RDF>
      <cc:Work
         rdf:about="">
        <dc:format>image/svg+xml</dc:format>
        <dc:type
           rdf:resource="http://purl.org/dc/dcmitype/StillImage" />
        <dc:title />
      </cc:Work>
    </rdf:RDF>
  </metadata>
  <g
     inkscape:label="Layer 1"
     inkscape:groupmode="layer"
     id="layer1"
     transform="translate(0,-1004.3622)">
    <g
       id="g3869"
       transform="translate(-274.67733,-82.202708)" />
    <g
       id="g4038"
       transform="matrix(0.29137082,0,0,0.29137082,-37.299656,663.48783)"
       style="fill:#000080">
      <path
         sodipodi:nodetypes="cccccccccccc"
         inkscape:connector-curvature="0"
         id="path3871"
         d="m 207.83957,1327.7785 c -19.79646,-18.6295 -34.32189,-35.266 -53.15195,-54.8636 -5.7238,-7.7488 -8.19973,-18.7093 -3.07579,-27.4206 4.881,-11.3963 12.78017,-21.515 16.08753,-33.5389 1.5239,-8.2739 -10.65913,-11.9395 -7.76476,-20.021 2.6592,-8.3084 11.45966,-0.1278 14.61918,3.6898 8.56142,11.2674 7.22759,26.1321 8.4534,39.4646 0.7424,7.1965 0.58125,15.7416 6.93799,20.5925 8.01748,-5.5559 22.18299,42.5341 26.44841,71.6291 -1.64683,2.5319 -6.52953,2.6063 -8.55401,0.4681 z m 9.03172,-7.749 c -144.58086,-178.4449 -72.29043,-89.2224 0,0 z"
         style="fill:#000080" />
      <path
         style="fill:#cf1b1b;fill-opacity:1"
         d="m 161.44635,1215.5229 c 2.49187,-2.2065 1.77023,-11.6492 -0.93464,-12.2295 -1.88964,-0.4055 -7.2916,7.7204 -6.78824,10.2114 0.79027,3.9109 4.49268,4.8784 7.72288,2.0181 z"
         id="path3859"
         inkscape:connector-curvature="0"
         sodipodi:nodetypes="scss" />
      <path
         sodipodi:nodetypes="ccccccccccccccccc"
         style="fill:#cf1b1b;fill-opacity:1"
         d="m 157.45315,1183.5279 c -1.21871,-1.9671 -0.52012,-4.6071 1.06591,-6.1528 1.16963,-1.4348 2.38358,-3.0961 4.21673,-3.672 1.58214,-0.077 3.11208,1.3635 4.66674,0.5128 1.62194,-1.0439 4.00743,-1.5436 5.55131,-0.087 0.9324,1.1666 2.00635,2.5188 3.6763,2.338 1.53048,0.034 3.0984,-0.4981 4.59788,0.011 1.33932,1.0719 0.9455,3.0004 1.519,4.4567 0.74214,3.4566 1.66506,6.9664 1.39836,10.5296 -0.26651,1.7351 -1.13157,3.6804 -2.89518,4.3052 -1.7397,0.2644 -2.94484,-1.303 -4.01392,-2.4156 -2.39196,-2.6264 -4.05542,-6.0997 -7.32808,-7.7872 -2.72644,-1.2078 -6.06588,-1.0562 -8.59169,0.5692 -1.73942,0.7651 -3.31401,-0.783 -3.74259,-2.3686 l -0.1208,-0.2396 0,0 z"
         id="path3891"
         inkscape:connector-curvature="0" />
      <path
         sodipodi:nodetypes="cccccccccc"
         style="fill:#000080"
         d="m 263.11074,1301.9491 c 5.58303,-6.5521 10.03439,-14.3345 12.20688,-22.6941 2.59438,-12.6621 -3.53404,-25.4698 -12.88591,-33.8179 -10.06532,-10.171 -24.67221,-15.6376 -38.94613,-13.8962 -8.15578,1.1224 -17.13563,2.4551 -23.50674,8.0917 -3.8645,3.9964 -0.54061,10.9738 3.31418,13.2518 9.45662,-1.0002 18.90543,-3.6948 28.497,-2.1763 8.94981,1.3324 17.8977,5.2392 24.20664,11.8287 9.38722,10.7781 11.20163,27.4272 3.65015,39.701 -2.41611,4.9054 2.34764,1.1383 3.46393,-0.2887 z"
         id="path3917"
         inkscape:connector-curvature="0" />
      <path
         sodipodi:nodetypes="cccccccc"
         style="fill:#000080"
         d="m 233.07299,1305.8968 c 4.88067,-4.5677 7.79892,-10.8812 10.74561,-16.7935 3.14445,-9.8915 0.44679,-20.8042 -4.12617,-29.8181 -4.47045,-7.3742 -12.34426,-11.9365 -19.86154,-15.7066 -4.51856,-2.1943 -9.71848,-2.1689 -14.50236,-0.9615 10.71686,7.0846 21.61896,15.0991 26.91136,27.2391 4.39066,9.2946 3.34359,20.2567 0.54985,29.8552 -0.10031,1.712 -4.90782,9.5904 0.28325,6.1854 z"
         id="path3915"
         inkscape:connector-curvature="0" />
      <path
         sodipodi:nodetypes="cccccccccc"
         style="fill:#000080"
         d="m 264.56992,1269.9407 c -1.10595,-8.5368 -3.88347,-17.0612 -8.619,-24.2846 -7.64027,-10.4251 -21.24597,-14.4846 -33.71185,-13.1609 -14.29564,0.6283 -28.15514,7.7809 -36.44983,19.5273 -4.64507,6.797 -9.68766,14.3459 -9.78925,22.8519 0.36618,5.5472 7.7684,7.7697 12.04496,6.4431 5.60914,-7.679 9.95739,-16.49 17.52349,-22.5775 6.99728,-5.737 15.9008,-9.7438 25.02009,-9.9938 14.2902,0.2819 27.84534,10.1175 31.86924,23.9552 2.01244,5.0844 2.41997,-0.9752 2.11215,-2.7607 z"
         id="path3909"
         inkscape:connector-curvature="0" />
      <path
         sodipodi:nodetypes="ccccccccccccccccccc"
         style="fill:#000080"
         d="m 224.21008,1214.9882 c -2.52656,0.7715 -4.99734,1.81 -7.44897,2.5581 -7.67515,2.4331 -15.02631,6.731 -19.1774,13.8726 -4.88266,7.8904 -7.36381,18.6209 -2.81402,27.1769 1.41582,0.8195 2.26956,-1.8265 2.99244,-2.6181 3.70058,-5.835 10.47617,-9.2403 13.39795,-15.5722 0.59994,-2.2486 1.15177,-4.5819 1.83556,-6.8755 7.05928,-4.3697 14.59212,-7.9063 22.86912,-8.8963 0.0332,0 0.0658,-4e-4 0.0987,5e-4 8.10777,0.3367 16.10639,1.8075 23.31189,5.8808 9.09734,4.7862 14.86878,14.1678 18.40859,23.517 0.94926,1.4281 1.82037,10.6125 3.92041,4.7703 1.153,-6.5844 -0.30422,-13.3583 -1.50511,-19.8541 -3.43573,-9.7942 -12.14598,-16.9001 -21.22005,-21.3522 -1.95772,-0.7834 -3.97233,-1.3252 -6.02685,-1.6519 -6.71304,-2.5737 -14.32288,-3.0133 -21.37979,-2.2704 -0.43686,0.079 -0.86706,0.1566 -1.29636,0.2579 -2.00631,0.031 -4.00616,0.4579 -5.96624,1.0563 z"
         id="path3907"
         inkscape:connector-curvature="0" />
      <path
         sodipodi:nodetypes="cccccccc"
         inkscape:connector-curvature="0"
         id="path3922"
         d="m 210.58875,1222.4662 c 6.3226,-2.7866 13.83738,-1.8212 19.78974,-5.4542 4.83066,-4.2334 9.6531,-9.4679 16.50436,-9.9823 4.94835,-1.8532 11.3213,1.3035 15.43195,-0.3998 -3.99779,-3.3881 -9.65889,-4.0146 -14.56489,-5.5017 -7.73019,-2.2521 -16.23821,-2.7651 -23.66253,0.8561 -8.44899,3.836 -16.45729,11.3671 -17.44154,21.0073 0.71987,1.469 2.90168,-0.2702 3.94291,-0.5254 z"
         style="fill:#000080" />
      <path
         inkscape:connector-curvature="0"
         id="path3933"
         d="m 164.54777,1192.4904 c -0.99134,0.7495 -3.24502,2.8846 -1.15817,3.6434 1.53521,0.9329 3.91009,-0.3318 3.48499,-2.2242 0.12689,-1.203 -1.29699,-2.4284 -2.32682,-1.4192 z"
         style="fill:#ffffff;fill-opacity:1;stroke:none" />
    </g>
  </g>
</svg>
