<?xml version="1.0" encoding="UTF-8" standalone="no"?>
<!-- Created with Inkscape (http://www.inkscape.org/) -->

<svg
   xmlns:dc="http://purl.org/dc/elements/1.1/"
   xmlns:cc="http://creativecommons.org/ns#"
   xmlns:rdf="http://www.w3.org/1999/02/22-rdf-syntax-ns#"
   xmlns:svg="http://www.w3.org/2000/svg"
   xmlns="http://www.w3.org/2000/svg"
   xmlns:sodipodi="http://sodipodi.sourceforge.net/DTD/sodipodi-0.dtd"
   xmlns:inkscape="http://www.inkscape.org/namespaces/inkscape"
   width="48"
   height="48"
   id="svg2"
   version="1.1"
   inkscape:version="0.48.1 r9760"
   sodipodi:docname="02.svg">
  <defs
     id="defs4" />
  <sodipodi:namedview
     id="base"
     pagecolor="#ffffff"
     bordercolor="#666666"
     borderopacity="1.0"
     inkscape:pageopacity="0.0"
     inkscape:pageshadow="2"
     inkscape:zoom="10.263956"
     inkscape:cx="22.061582"
     inkscape:cy="22.557548"
     inkscape:document-units="px"
     inkscape:current-layer="layer1"
     showgrid="false"
     inkscape:window-width="1024"
     inkscape:window-height="714"
     inkscape:window-x="0"
     inkscape:window-y="24"
     inkscape:window-maximized="1" />
  <metadata
     id="metadata7">
    <rdf:RDF>
      <cc:Work
         rdf:about="">
        <dc:format>image/svg+xml</dc:format>
        <dc:type
           rdf:resource="http://purl.org/dc/dcmitype/StillImage" />
        <dc:title />
      </cc:Work>
    </rdf:RDF>
  </metadata>
  <g
     inkscape:label="Layer 1"
     inkscape:groupmode="layer"
     id="layer1"
     transform="translate(0,-1004.3622)">
    <path
       style="fill:none;stroke:#333333;stroke-width:0.16030319px;stroke-linecap:butt;stroke-linejoin:miter;stroke-opacity:1"
       d="m 30.483787,1020.4335 c 0.284123,0.1987 2.597642,0.8622 2.665409,2.4327 0.06514,0.8047 -0.12013,1.6019 -0.09759,2.1238 -0.01534,0.5771 0.0591,1.593 -0.08692,1.9063 0.04966,-0.2455 -0.13231,0.9355 -0.087,0.8073 0.01345,0.6438 -0.212731,1.2594 0.05391,1.8965 0.127555,0.371 0.19976,0.9156 0.252494,0.898 0.254951,0.7203 0.945925,1.0458 1.537047,1.4221 0.473569,0.3857 0.848459,0.8477 1.270587,1.2472 0.393011,0.4173 0.942735,0.777 1.355379,1.242 0.543722,0.3847 1.065223,0.8334 1.637186,1.1524 0.504855,0.3863 1.059188,0.673 1.580742,1.0415 0.549022,0.422 1.525193,1.2882 1.799032,1.918"
       id="path3033"
       inkscape:connector-curvature="0"
       sodipodi:nodetypes="ccccccccccccc" />
    <path
       style="fill:#e8e8c6;fill-opacity:1"
       d="m 8.0107231,1008.7842 c 7.6015029,-0.8173 15.1469729,-0.4825 22.7482419,0 0.586323,9.5168 0.131307,16.6588 0,24.491 -6.033577,0.5256 -12.136588,1.7352 -22.7482419,0 -0.7094723,-13.9736 0.025001,-17.3103 0,-24.491 z"
       id="rect3015"
       inkscape:connector-curvature="0"
       sodipodi:nodetypes="ccccc" />
    <rect
       style="fill:#808080;fill-opacity:1"
       id="rect3017"
       width="8.8974981"
       height="0.45863387"
       x="19.568304"
       y="1028.9642" />
    <rect
       style="fill:#808080;fill-opacity:1"
       id="rect3019"
       width="2.7518034"
       height="1.5593551"
       x="25.989178"
       y="1028.322" />
    <path
       style="fill:#e8e8c6;fill-opacity:1"
       d="m 4.8630146,1037.3277 c 10.2733964,0.66 18.5007984,0.4541 28.7741944,-0.1775 0.540476,4.9266 2.488376,6.3887 3.542632,9.5171 -11.741027,1.0559 -23.482054,0.8553 -35.2230809,0.6421 1.0957726,-3.7828 2.578463,-5.9429 2.9062545,-9.9817 z"
       id="rect3021"
       inkscape:connector-curvature="0"
       sodipodi:nodetypes="ccccc" />
    <path
       style="fill:#6c6cc7;fill-opacity:1"
       d="m 17.769738,1025.2019 c -1.842196,0 -3.709807,-0.1439 -5.610613,-0.5059 -0.198604,-0.019 -0.397342,-0.032 -0.596126,-0.046 -0.760615,-0.049 -1.321451,-0.6175 -1.377606,-1.3776 -0.132385,-1.7921 -0.4049627,-3.0065 -0.3556721,-5.5254 -0.014585,-0.7933 0.018184,-1.5704 0.1202243,-2.3344 0.00265,-0.021 0.00227,-0.04 0.00492,-0.061 0.056655,-0.7266 0.1267208,-1.5299 0.2304358,-2.4446 0.08586,-0.7575 0.621119,-1.2792 1.377605,-1.3727 0.581381,-0.072 1.161918,-0.1364 1.743298,-0.1953 1.973365,-0.2516 3.942823,-0.3613 5.91619,-0.3558 0.121967,0 0.243718,0 0.36569,0 1.979945,0 3.961292,0.1023 5.941237,0.3558 0.573117,0.059 1.145133,0.125 1.718251,0.1953 0.756486,0.093 1.291734,0.6152 1.377605,1.3727 0.111511,0.9834 0.192948,1.8371 0.250473,2.6049 0.09869,0.7838 0.132328,1.5805 0.110204,2.3944 2.2e-5,0 -2.5e-5,0 0,0 0.03408,2.406 -0.23126,3.6083 -0.360683,5.3602 -0.05616,0.7601 -0.616993,1.3276 -1.377605,1.3776 -0.199309,0.019 -0.397,0.03 -0.596129,0.046 -2.466297,0.4686 -4.867607,0.5535 -7.243699,0.4809 -0.545281,0.019 -1.089567,0.028 -1.638098,0.025 z"
       id="rect3024"
       inkscape:connector-curvature="0" />
    <path
       style="fill:#e8e8c6;fill-opacity:1"
       d="m 39.753894,1038.5265 5.044973,0 c 0.789728,1.99 1.554312,3.9926 1.834537,6.2374 -1.739415,0.6011 -3.508086,1.0266 -5.50361,0.091 -1.432011,-2.1095 -1.142498,-4.2189 -1.3759,-6.3284 z"
       id="rect3030"
       inkscape:connector-curvature="0"
       sodipodi:nodetypes="ccccc" />
    <path
       style="fill:#808080;fill-opacity:1"
       d="m 6.2112278,1041.6698 c 0.468888,-0.1536 1.0573286,-0.3603 1.485235,0 0.056006,0.4922 0.3468163,1.0492 0.012607,1.5031 -0.4588657,0.2913 -1.0921015,0.279 -1.5361764,-0.036 -0.1742396,-0.4746 -0.081925,-0.9917 0.038334,-1.4671 z"
       id="rect3760"
       inkscape:connector-curvature="0" />
    <path
       style="fill:#6c6cc7;fill-opacity:1;stroke:none"
       d="m 13.050181,1059.9964 c -0.199302,0.5446 -0.184289,1.1333 -0.279348,1.6988 -0.04742,0.4717 -0.0735,0.9459 -0.06895,1.42 0.102546,0.2101 0.357667,0.1202 0.538309,0.1016 0.779332,0.032 1.559149,0.1104 2.328118,0.2461 0.457429,0.061 0.91813,0.1001 1.372441,0.1834 0.24314,-0.053 0.123128,-0.3367 0.09611,-0.5032 -0.0025,-0.3129 0.02515,-0.6287 -0.004,-0.9424 -0.01757,-0.3474 -0.100464,-0.6859 -0.186622,-1.021 -0.0645,-0.3615 -0.04484,-0.7352 -0.143308,-1.0911 -0.216736,-0.2121 -0.537402,-0.098 -0.804451,-0.1304 -0.682,-0.04 -1.362736,-0.106 -2.045447,-0.1298 -0.345927,-0.039 -0.698017,-0.1039 -1.044905,-0.038 -0.121485,0.1423 0.15504,0.1917 0.242073,0.2056 z"
       id="path3991"
       inkscape:connector-curvature="0" />
    <path
       style="fill:#808080;fill-opacity:1;stroke:none"
       d="m 9.0790682,1039.5957 c -0.4102524,0.2537 -1.1590014,-0.293 -1.3530131,0.2994 -0.059254,0.4394 -0.1071668,0.9887 0.2203576,1.3352 0.3487666,0.2913 0.8598418,0.2771 1.2748504,0.1609 0.4351796,-0.1384 0.5715646,-0.608 0.5759908,-1.0059 0.2726651,-0.4693 -0.096534,-1.0385 -0.6281103,-0.791 l -0.090075,0.01 -2e-7,-0 z"
       id="path4010"
       inkscape:connector-curvature="0" />
    <path
       inkscape:connector-curvature="0"
       id="path4020"
       d="m 30.057497,1041.0525 c -0.1521,-0.3812 -0.2357,-0.8017 -0.1655,-1.2106 0.043,-0.1071 0.091,-0.2282 0.2023,-0.2809 0.4202,-0.094 0.853,-0.1953 1.2855,-0.1313 0.1802,0.046 0.3179,0.2206 0.3223,0.4064 0.091,0.3865 0.059,0.7978 -0.073,1.1711 -0.4044,0.2232 -0.8982,0.2286 -1.3336,0.1 -0.079,-0.021 -0.1589,-0.035 -0.238,-0.055 z"
       style="fill:#808080;fill-opacity:1" />
    <path
       style="fill:#808080;fill-opacity:1"
       d="m 30.544639,1043.0985 c -0.1521,-0.3812 -0.2357,-0.8017 -0.1655,-1.2106 0.043,-0.1071 0.091,-0.2282 0.2023,-0.2809 0.4202,-0.094 0.853,-0.1953 1.2855,-0.1313 0.1802,0.046 0.3179,0.2206 0.3223,0.4064 0.091,0.3865 0.059,0.7978 -0.073,1.1711 -0.4044,0.2232 -0.8982,0.2286 -1.3336,0.1 -0.079,-0.021 -0.1589,-0.035 -0.238,-0.055 z"
       id="path4022"
       inkscape:connector-curvature="0" />
    <path
       inkscape:connector-curvature="0"
       id="path4024"
       d="m 33.21824,1045.1457 c -0.3812,0.1521 -0.8017,0.2357 -1.2106,0.1655 -0.1071,-0.043 -0.2282,-0.091 -0.2809,-0.2023 -0.094,-0.4202 -0.1953,-0.853 -0.1313,-1.2855 0.046,-0.1802 0.2206,-0.3179 0.4064,-0.3223 0.3865,-0.091 0.7978,-0.059 1.1711,0.073 0.2232,0.4044 0.2286,0.8982 0.1,1.3336 -0.021,0.079 -0.035,0.1589 -0.055,0.238 z"
       style="fill:#808080;fill-opacity:1" />
    <path
       style="fill:#808080;fill-opacity:1"
       d="m 10.595502,1039.9161 c 0.468888,-0.1536 1.057329,-0.3603 1.485235,0 0.056,0.4922 0.346818,1.0492 0.01261,1.5031 -0.458866,0.2913 -1.092102,0.279 -1.536177,-0.036 -0.174237,-0.4746 -0.08193,-0.9917 0.03833,-1.4671 z"
       id="path4026"
       inkscape:connector-curvature="0" />
    <path
       style="fill:#808080;fill-opacity:1"
       d="m 15.661774,1044.3004 c 0.550802,-0.1672 1.112608,-0.3674 1.485235,0 0.08402,0.5534 0.341532,1.1761 0,1.5593 -0.495078,0.2061 -0.990157,0.1601 -1.485235,0 -0.09959,-0.3206 -0.253018,-0.5335 0,-1.5593 z"
       id="path4028"
       inkscape:connector-curvature="0"
       sodipodi:nodetypes="ccccc" />
    <path
       style="fill:#808080;fill-opacity:1"
       d="m 26.705923,1041.8383 c -0.335318,9e-4 -0.65179,0.1247 -0.96875,0.2188 -0.108153,0.4501 -0.213577,0.9346 -0.05881,1.3871 0.0086,0.2043 0.321345,0.2213 0.304873,0.4355 0.120424,0.095 0.44427,-0.067 0.397182,0.1929 -0.01551,0.2188 0.0026,0.4481 0.08479,0.6517 0.113357,0.1535 0.262622,0.276 0.377205,0.4285 0.198977,0.024 0.405106,-0.058 0.598025,0.022 0.22868,0.044 0.452126,0.1206 0.686146,0.1325 0.191536,-0.065 0.100546,-0.3021 0.107972,-0.4503 0.0069,-0.1956 0.022,-0.3947 -0.0362,-0.5849 -0.06331,-0.3457 0.04828,-0.6939 0.0079,-1.0399 -0.05486,-0.1812 -0.145544,-0.3538 -0.149666,-0.547 -0.03,-0.1792 -0.07702,-0.3553 -0.100766,-0.5356 -0.136951,-0.1399 -0.340274,-0.1923 -0.53125,-0.1875 -0.0729,-0.2123 -0.31615,-0.04 -0.467624,-0.077 -0.08307,-0.018 -0.164428,-0.057 -0.251058,-0.047 z"
       id="path4030"
       inkscape:connector-curvature="0" />
    <path
       style="fill:#808080;fill-opacity:1"
       d="m 21.11776,1041.6698 c 0.550802,-0.1672 1.112608,-0.3674 1.485235,0 0.08402,0.5534 0.341532,1.1761 0,1.5593 -0.495078,0.2061 -0.990157,0.1601 -1.485235,0 -0.09959,-0.3206 -0.253018,-0.5335 0,-1.5593 z"
       id="path4032"
       inkscape:connector-curvature="0"
       sodipodi:nodetypes="ccccc" />
    <path
       style="fill:#808080;fill-opacity:1"
       d="m 8.8851533,1044.0908 c 0.1672,0.5508 0.3674,1.1126 0,1.4852 -0.5534,0.084 -1.1761,0.3416 -1.5593,0 -0.2061,-0.495 -0.1601,-0.9901 0,-1.4852 0.3206,-0.1 0.5335,-0.253 1.5593,0 z"
       id="path4034"
       inkscape:connector-curvature="0"
       sodipodi:nodetypes="ccccc" />
    <path
       sodipodi:nodetypes="ccccc"
       inkscape:connector-curvature="0"
       id="path4036"
       d="m 10.054293,1041.8499 c 0.1672,0.5508 0.3674,1.1126 0,1.4852 -0.5533998,0.084 -1.1760998,0.3416 -1.5592998,0 -0.2061,-0.495 -0.1601,-0.9901 0,-1.4852 0.3206,-0.1 0.5335,-0.253 1.5592998,0 z"
       style="fill:#808080;fill-opacity:1" />
    <path
       style="fill:#808080;fill-opacity:1"
       d="m 14.453205,1045.5955 c -0.5508,0.1672 -1.1126,0.3674 -1.4852,0 -0.084,-0.5534 -0.3416,-1.1761 0,-1.5593 0.495,-0.2061 0.9901,-0.1601 1.4852,0 0.1,0.3206 0.253,0.5335 0,1.5593 z"
       id="path4038"
       inkscape:connector-curvature="0"
       sodipodi:nodetypes="ccccc" />
    <path
       sodipodi:nodetypes="ccccc"
       inkscape:connector-curvature="0"
       id="path4040"
       d="m 17.66834,1043.452 c -0.5508,0.1672 -1.1126,0.3674 -1.4852,0 -0.084,-0.5534 -0.3416,-1.1761 0,-1.5593 0.495,-0.2061 0.9901,-0.1601 1.4852,0 0.1,0.3206 0.253,0.5335 0,1.5593 z"
       style="fill:#808080;fill-opacity:1" />
    <path
       style="fill:#808080;fill-opacity:1"
       d="m 14.550633,1041.406 c -0.468876,0.1536 -1.057307,0.3603 -1.4852,0 -0.056,-0.4922 -0.346853,-1.0492 -0.01262,-1.5031 0.458902,-0.2913 1.092065,-0.2788 1.536225,0.036 0.174563,0.4745 0.08167,0.9917 -0.03841,1.4671 z"
       id="path4042"
       inkscape:connector-curvature="0" />
    <path
       sodipodi:nodetypes="ccccc"
       inkscape:connector-curvature="0"
       id="path4044"
       d="m 10.999913,1043.4666 c -0.1672,-0.5508 -0.3674,-1.1126 0,-1.4852 0.5534,-0.084 1.1761,-0.3416 1.5593,0 0.2061,0.495 0.1601,0.9901 0,1.4852 -0.3206,0.1 -0.5335,0.253 -1.5593,0 z"
       style="fill:#808080;fill-opacity:1" />
    <path
       style="fill:#808080;fill-opacity:1"
       d="m 13.338193,1043.3692 c -0.1672,-0.5508 -0.3674,-1.1126 0,-1.4852 0.5534,-0.084 1.1761,-0.3416 1.5593,0 0.2061,0.495 0.1601,0.9901 0,1.4852 -0.3206,0.1 -0.5335,0.253 -1.5593,0 z"
       id="path4046"
       inkscape:connector-curvature="0"
       sodipodi:nodetypes="ccccc" />
    <path
       style="fill:#808080;fill-opacity:1;stroke:none"
       d="m 19.656907,1045.4752 c -0.128257,-0.4598 0.01995,-0.9369 -0.04548,-1.4026 -0.427759,0.081 -0.868897,-0.041 -1.293939,0.069 -0.342588,0.057 -0.543973,0.4289 -0.495994,0.755 -0.03909,0.3805 -0.04365,0.8575 0.303572,1.1035 0.312974,0.2364 0.718962,0.07 1.04901,0.2403 0.313606,0.1413 0.606276,-0.1583 0.484794,-0.4654 -0.01492,-0.099 -0.02957,-0.2019 -0.002,-0.3002 z"
       id="path4051"
       inkscape:connector-curvature="0" />
    <path
       style="fill:#808080;fill-opacity:1;stroke:none"
       d="m 16.115367,1041.0488 c 0.410071,-0.2542 1.158907,0.2931 1.352785,-0.2995 0.05928,-0.4394 0.107701,-0.9888 -0.22002,-1.3352 -0.348877,-0.291 -0.859849,-0.2771 -1.274892,-0.1612 -0.435126,0.1386 -0.570773,0.6086 -0.575048,1.0064 -0.272453,0.4687 0.09554,1.0382 0.627149,0.7909 l 0.09003,-0 0,0 z"
       id="path4055"
       inkscape:connector-curvature="0" />
    <path
       style="fill:#808080;fill-opacity:1;stroke:none"
       d="m 20.986783,1046.0176 c 0.459887,-0.1273 0.936794,0.019 1.402622,-0.045 -0.09222,-0.484 0.07203,-1.0025 -0.132994,-1.4666 -0.151396,-0.3091 -0.507053,-0.3307 -0.805324,-0.3324 -0.381509,-0.037 -0.871833,0.015 -1.050233,0.4117 -0.157002,0.3143 -0.02842,0.6704 -0.189207,0.9808 -0.128089,0.3112 0.18103,0.5686 0.471732,0.4559 0.09999,-0.014 0.204181,-0.03 0.303404,-0 z"
       id="path4057"
       inkscape:connector-curvature="0" />
    <path
       id="path4059"
       d="m 18.691253,1042.2326 c 0.01052,0.1325 0.08312,0.2527 0.06523,0.3874 -0.01368,0.1304 -0.03577,0.2558 -0.03262,0.3876 0,0.1042 0,0.2318 0,0.3358 0.01052,0.036 0,0.052 0.03262,0.051 l 0.03262,0 c 0.137829,-0.023 0.256719,-0.027 0.394548,-0.051 0.37319,0.1179 0.844333,-0.017 1.31516,-0.1292 0.266188,-0.8479 0.105213,-1.0266 0,-1.2916 -0.07681,-0.02 -0.153506,-0.036 -0.2301,-0.051 0,-0.052 0.01157,-0.1035 0,-0.155 -0.06839,-0.099 -0.175285,-0.028 -0.263032,-0.026 -0.311746,0.036 -0.64527,-0.06 -0.953544,-0.1033 -0.07681,-0.013 -0.120889,-0.014 -0.197274,-0.026 -0.08522,-0.081 -0.219368,0.047 -0.164342,0.155 0.0263,0.1666 -0.02525,0.349 0,0.5166 z"
       style="fill:#808080;fill-opacity:1;stroke:none"
       inkscape:connector-curvature="0" />
    <path
       style="fill:#808080;fill-opacity:1;stroke:none"
       d="m 19.241798,1041.3627 c -0.04324,0 -0.07207,-0.023 -0.108762,-0.031 -0.03687,0 -0.09493,-0.024 -0.135952,-0.031 -0.12306,-0.022 -0.240505,-0.046 -0.407858,-0.094 -0.02236,-0.084 -0.03232,-0.1662 -0.05438,-0.25 -0.09486,-0.3605 -0.182306,-0.7122 -0.08157,-1 -0.02523,-0.131 -0.03002,-0.244 -0.05438,-0.375 l 0,-0.031 c 0.0059,-0.013 0.01601,-0.021 0.02719,-0.031 0.0086,0 0.01188,0 0.02719,0 0.03742,-0.025 0.08769,-0.053 0.135952,-0.031 0.175412,0.025 0.367442,-0.024 0.54381,0 0.06974,0 0.123542,0.046 0.190334,0.062 0.02901,0 0.05295,0.01 0.08157,0 0.06679,-0.016 0.147786,-0.058 0.217524,-0.062 0.176368,-0.024 0.368398,0.025 0.54381,0 0.05677,-0.026 0.0987,0 0.135952,0.031 0.01863,0.018 0.05195,0.04 0.05438,0.062 -0.02436,0.131 -0.02915,0.244 -0.05438,0.375 0.124163,0.3547 -0.01745,0.8025 -0.135952,1.25 -0.169916,0.048 -0.31071,0.072 -0.435048,0.094 -0.03894,0.01 -0.100772,0.027 -0.135953,0.031 -0.06806,0.015 -0.150823,0.031 -0.244714,0.031 -0.03353,-6e-4 -0.07918,0 -0.108762,0 z"
       id="path4064"
       inkscape:connector-curvature="0" />
    <path
       inkscape:connector-curvature="0"
       id="path4069"
       d="m 10.765534,1045.747 c -0.04324,0 -0.07207,-0.023 -0.108762,-0.031 -0.03687,0 -0.09493,-0.024 -0.135952,-0.031 -0.12306,-0.022 -0.240505,-0.046 -0.407858,-0.094 -0.02236,-0.084 -0.03232,-0.1662 -0.05438,-0.25 -0.09486,-0.3605 -0.1823057,-0.7122 -0.08157,-1 -0.02523,-0.131 -0.03002,-0.244 -0.05438,-0.375 l 0,-0.031 c 0.0059,-0.013 0.01601,-0.021 0.02719,-0.031 0.0086,0 0.01188,0 0.02719,0 0.03742,-0.025 0.08769,-0.053 0.1359517,-0.031 0.175412,0.025 0.367442,-0.024 0.54381,0 0.06974,0 0.123542,0.046 0.190334,0.062 0.02901,0 0.05295,0.01 0.08157,0 0.06679,-0.016 0.147786,-0.058 0.217524,-0.062 0.176368,-0.024 0.368398,0.025 0.54381,0 0.05677,-0.026 0.0987,0 0.135952,0.031 0.01863,0.018 0.05195,0.04 0.05438,0.062 -0.02436,0.131 -0.02915,0.244 -0.05438,0.375 0.124163,0.3547 -0.01745,0.8025 -0.135952,1.25 -0.169916,0.048 -0.31071,0.072 -0.435048,0.094 -0.03894,0.01 -0.100772,0.027 -0.135953,0.031 -0.06806,0.015 -0.150823,0.031 -0.244714,0.031 -0.03353,-6e-4 -0.07918,0 -0.108762,0 z"
       style="fill:#808080;fill-opacity:1;stroke:none" />
    <path
       sodipodi:nodetypes="ccccc"
       inkscape:connector-curvature="0"
       id="path4081"
       d="m 22.48386,1039.3315 c -0.550802,-0.1672 -1.112608,-0.3674 -1.485235,0 -0.08402,0.5534 -0.341532,1.1761 0,1.5593 0.495078,0.2061 0.990157,0.1601 1.485235,0 0.09959,-0.3206 0.253018,-0.5335 0,-1.5593 z"
       style="fill:#808080;fill-opacity:1" />
    <path
       style="fill:#808080;fill-opacity:1"
       d="m 25.446139,1041.1137 c 0.5508,0.1672 1.1126,0.3674 1.4852,0 0.084,-0.5534 0.3416,-1.1761 0,-1.5593 -0.495,-0.2061 -0.9901,-0.1601 -1.4852,0 -0.1,0.3206 -0.253,0.5335 0,1.5593 z"
       id="path4083"
       inkscape:connector-curvature="0"
       sodipodi:nodetypes="ccccc" />
    <path
       style="fill:#808080;fill-opacity:1;stroke:none"
       d="m 24.465975,1045.8227 c -0.459887,-0.1273 -0.936794,0.019 -1.402622,-0.045 0.09222,-0.484 -0.07203,-1.0025 0.132994,-1.4666 0.151396,-0.3091 0.507053,-0.3307 0.805324,-0.3324 0.381509,-0.037 0.871833,0.015 1.050233,0.4117 0.157002,0.3143 0.02842,0.6704 0.189207,0.9808 0.128089,0.3112 -0.18103,0.5686 -0.471732,0.4559 -0.09999,-0.014 -0.204181,-0.03 -0.303404,-0 z"
       id="path4085"
       inkscape:connector-curvature="0" />
    <path
       inkscape:connector-curvature="0"
       style="fill:#808080;fill-opacity:1;stroke:none"
       d="m 24.910367,1039.8943 c -0.01052,0.1325 -0.08312,0.2527 -0.06523,0.3874 0.01368,0.1304 0.03577,0.2558 0.03262,0.3876 0,0.1042 0,0.2318 0,0.3358 -0.01052,0.036 0,0.052 -0.03262,0.051 l -0.03262,0 c -0.137829,-0.023 -0.256719,-0.027 -0.394548,-0.051 -0.37319,0.1179 -0.844333,-0.017 -1.31516,-0.1292 -0.266188,-0.8479 -0.105213,-1.0266 0,-1.2916 0.07681,-0.02 0.153506,-0.036 0.2301,-0.051 0,-0.052 -0.01157,-0.1035 0,-0.155 0.06839,-0.099 0.175285,-0.028 0.263032,-0.026 0.311746,0.036 0.64527,-0.06 0.953544,-0.1033 0.07681,-0.013 0.120889,-0.014 0.197274,-0.026 0.08522,-0.081 0.219368,0.047 0.164342,0.155 -0.0263,0.1666 0.02525,0.349 0,0.5166 z"
       id="path4087" />
    <path
       inkscape:connector-curvature="0"
       id="path4089"
       d="m 24.262394,1043.4087 c 0.04324,0 0.07207,-0.023 0.108762,-0.031 0.03687,0 0.09493,-0.024 0.135952,-0.031 0.12306,-0.022 0.240505,-0.046 0.407858,-0.094 0.02236,-0.084 0.03232,-0.1662 0.05438,-0.25 0.09486,-0.3605 0.182306,-0.7122 0.08157,-1 0.02523,-0.131 0.03002,-0.244 0.05438,-0.375 l 0,-0.031 c -0.0059,-0.013 -0.01601,-0.021 -0.02719,-0.031 -0.0086,0 -0.01188,0 -0.02719,0 -0.03742,-0.025 -0.08769,-0.053 -0.135952,-0.031 -0.175412,0.025 -0.367442,-0.024 -0.54381,0 -0.06974,0 -0.123542,0.046 -0.190334,0.062 -0.02901,0 -0.05295,0.01 -0.08157,0 -0.06679,-0.016 -0.147786,-0.058 -0.217524,-0.062 -0.176368,-0.024 -0.368398,0.025 -0.54381,0 -0.05677,-0.026 -0.0987,0 -0.135952,0.031 -0.01863,0.018 -0.05195,0.04 -0.05438,0.062 0.02436,0.131 0.02915,0.244 0.05438,0.375 -0.124163,0.3547 0.01745,0.8025 0.135952,1.25 0.169916,0.048 0.31071,0.072 0.435048,0.094 0.03894,0.01 0.100772,0.027 0.135953,0.031 0.06806,0.015 0.150823,0.031 0.244714,0.031 0.03353,-6e-4 0.07918,0 0.108762,0 z"
       style="fill:#808080;fill-opacity:1;stroke:none" />
    <path
       style="fill:#808080;fill-opacity:1"
       d="m 41.007833,1041.0449 c -0.10498,-0.402 -0.162682,-0.8455 -0.114229,-1.2768 0.02968,-0.1129 0.06281,-0.2406 0.139629,-0.2962 0.290026,-0.099 0.588748,-0.206 0.887263,-0.1385 0.124376,0.049 0.219418,0.2327 0.222454,0.4286 0.06281,0.4076 0.04072,0.8414 -0.05038,1.2351 -0.27912,0.2354 -0.619945,0.2411 -0.920462,0.1055 -0.05453,-0.022 -0.109674,-0.037 -0.16427,-0.058 z"
       id="path4091"
       inkscape:connector-curvature="0" />
    <path
       inkscape:connector-curvature="0"
       id="path4093"
       d="m 43.053828,1041.0449 c -0.10498,-0.402 -0.162682,-0.8455 -0.114229,-1.2768 0.02968,-0.1129 0.06281,-0.2406 0.139629,-0.2962 0.290026,-0.099 0.588748,-0.206 0.887263,-0.1385 0.124376,0.049 0.219418,0.2327 0.222454,0.4286 0.06281,0.4076 0.04072,0.8414 -0.05038,1.2351 -0.27912,0.2354 -0.619945,0.2411 -0.920462,0.1055 -0.05453,-0.022 -0.109674,-0.037 -0.16427,-0.058 z"
       style="fill:#808080;fill-opacity:1" />
  </g>
</svg>
