<?xml version="1.0" encoding="UTF-8" standalone="no"?>
<!-- Created with Inkscape (http://www.inkscape.org/) -->

<svg
   xmlns:dc="http://purl.org/dc/elements/1.1/"
   xmlns:cc="http://creativecommons.org/ns#"
   xmlns:rdf="http://www.w3.org/1999/02/22-rdf-syntax-ns#"
   xmlns:svg="http://www.w3.org/2000/svg"
   xmlns="http://www.w3.org/2000/svg"
   xmlns:sodipodi="http://sodipodi.sourceforge.net/DTD/sodipodi-0.dtd"
   xmlns:inkscape="http://www.inkscape.org/namespaces/inkscape"
   width="48"
   height="48"
   id="svg2"
   version="1.1"
   inkscape:version="0.48.1 r9760"
   sodipodi:docname="01.svg">
  <defs
     id="defs4" />
  <sodipodi:namedview
     id="base"
     pagecolor="#ffffff"
     bordercolor="#666666"
     borderopacity="1.0"
     inkscape:pageopacity="0.0"
     inkscape:pageshadow="2"
     inkscape:zoom="10.263956"
     inkscape:cx="23.991834"
     inkscape:cy="23.882283"
     inkscape:document-units="px"
     inkscape:current-layer="layer1"
     showgrid="false"
     inkscape:window-width="1024"
     inkscape:window-height="714"
     inkscape:window-x="0"
     inkscape:window-y="24"
     inkscape:window-maximized="1" />
  <metadata
     id="metadata7">
    <rdf:RDF>
      <cc:Work
         rdf:about="">
        <dc:format>image/svg+xml</dc:format>
        <dc:type
           rdf:resource="http://purl.org/dc/dcmitype/StillImage" />
        <dc:title></dc:title>
      </cc:Work>
    </rdf:RDF>
  </metadata>
  <g
     inkscape:label="Layer 1"
     inkscape:groupmode="layer"
     id="layer1"
     transform="translate(0,-1004.3622)">
    <rect
       style="fill:#333333;fill-opacity:1"
       id="rect3015"
       width="22.748241"
       height="24.491049"
       x="8.0107231"
       y="1008.7842" />
    <rect
       style="fill:#808080;fill-opacity:1"
       id="rect3017"
       width="8.8974981"
       height="0.45863387"
       x="19.568304"
       y="1028.9642" />
    <rect
       style="fill:#808080;fill-opacity:1"
       id="rect3019"
       width="2.7518034"
       height="1.5593551"
       x="25.989178"
       y="1028.322" />
    <path
       style="fill:#333333;fill-opacity:1"
       d="m 3.7913031,1035.4766 30.8201889,-0.275 2.568349,11.4657 -35.2230809,0.6421 z"
       id="rect3021"
       inkscape:connector-curvature="0"
       sodipodi:nodetypes="ccccc" />
    <path
       style="fill:#808080;fill-opacity:1"
       d="m 17.769738,1025.2019 c -1.842196,0 -3.709807,-0.1439 -5.610613,-0.5059 -0.198604,-0.019 -0.397342,-0.032 -0.596126,-0.046 -0.760615,-0.049 -1.321451,-0.6175 -1.377606,-1.3776 -0.132385,-1.7921 -0.4049627,-3.0065 -0.3556721,-5.5254 -0.014585,-0.7933 0.018184,-1.5704 0.1202243,-2.3344 0.00265,-0.021 0.00227,-0.04 0.00492,-0.061 0.056655,-0.7266 0.1267208,-1.5299 0.2304358,-2.4446 0.08586,-0.7575 0.621119,-1.2792 1.377605,-1.3727 0.581381,-0.072 1.161918,-0.1364 1.743298,-0.1953 1.973365,-0.2516 3.942823,-0.3613 5.91619,-0.3558 0.121967,0 0.243718,0 0.36569,0 1.979945,0 3.961292,0.1023 5.941237,0.3558 0.573117,0.059 1.145133,0.125 1.718251,0.1953 0.756486,0.093 1.291734,0.6152 1.377605,1.3727 0.111511,0.9834 0.192948,1.8371 0.250473,2.6049 0.09869,0.7838 0.132328,1.5805 0.110204,2.3944 2.2e-5,0 -2.5e-5,0 0,0 0.03408,2.406 -0.23126,3.6083 -0.360683,5.3602 -0.05616,0.7601 -0.616993,1.3276 -1.377605,1.3776 -0.199309,0.019 -0.397,0.03 -0.596129,0.046 -2.466297,0.4686 -4.867607,0.5535 -7.243699,0.4809 -0.545281,0.019 -1.089567,0.028 -1.638098,0.025 z"
       id="rect3024"
       inkscape:connector-curvature="0" />
    <path
       style="fill:#333333;fill-opacity:1"
       d="m 39.656466,1038.1368 5.044973,0 1.834537,6.2374 -5.50361,0.091 z"
       id="rect3030"
       inkscape:connector-curvature="0"
       sodipodi:nodetypes="ccccc" />
    <path
       style="fill:none;stroke:#333333;stroke-width:0.16030319px;stroke-linecap:butt;stroke-linejoin:miter;stroke-opacity:1"
       d="m 30.483787,1020.4335 c 0.284123,0.1987 2.597642,0.8622 2.665409,2.4327 0.06514,0.8047 -0.12013,1.6019 -0.09759,2.1238 -0.01534,0.5771 0.0591,1.593 -0.08692,1.9063 0.04966,-0.2455 -0.13231,0.9355 -0.087,0.8073 0.01345,0.6438 -0.212731,1.2594 0.05391,1.8965 0.127555,0.371 0.19976,0.9156 0.252494,0.898 0.254951,0.7203 0.945925,1.0458 1.537047,1.4221 0.473569,0.3857 0.848459,0.8477 1.270587,1.2472 0.393011,0.4173 0.942735,0.777 1.355379,1.242 0.543722,0.3847 1.065223,0.8334 1.637186,1.1524 0.504855,0.3863 1.059188,0.673 1.580742,1.0415 0.549022,0.422 1.525193,1.2882 1.799032,1.918"
       id="path3033"
       inkscape:connector-curvature="0"
       sodipodi:nodetypes="ccccccccccccc" />
  </g>
</svg>
